0
SECTION
2
HEADER
9
$INSUNITS
70
4
9
$ACADVER
1
AC1014
9
$HANDSEED
5
FFFF
0
ENDSEC
0
SECTION
2
TABLES
0
TABLE
2
VPORT
5
8
100
AcDbSymbolTable
0
ENDTAB
0
TABLE
2
LTYPE
5
5
100
AcDbSymbolTable
0
LTYPE
5
14
100
AcDbSymbolTableRecord
100
AcDbLinetypeTableRecord
2
BYBLOCK
70
0
0
LTYPE
5
15
100
AcDbSymbolTableRecord
100
AcDbLinetypeTableRecord
2
BYLAYER
70
0
0
ENDTAB
0
TABLE
2
LAYER
5
2
100
AcDbSymbolTable
70
2
0
LAYER
5
50
100
AcDbSymbolTableRecord
100
AcDbLayerTableRecord
2
0
70
0
6
CONTINUOUS
0
ENDTAB
0
TABLE
2
STYLE
5
3
100
AcDbSymbolTable
70
1
0
STYLE
5
11
100
AcDbSymbolTableRecord
100
AcDbTextStyleTableRecord
2
STANDARD
70
0
0
ENDTAB
0
TABLE
2
VIEW
5
6
100
AcDbSymbolTable
70
0
0
ENDTAB
0
TABLE
2
UCS
5
7
100
AcDbSymbolTable
70
0
0
ENDTAB
0
TABLE
2
APPID
5
9
100
AcDbSymbolTable
70
2
0
APPID
5
12
100
AcDbSymbolTableRecord
100
AcDbRegAppTableRecord
2
ACAD
70
0
0
ENDTAB
0
TABLE
2
DIMSTYLE
5
A
100
AcDbSymbolTable
70
1
0
ENDTAB
0
TABLE
2
BLOCK_RECORD
5
1
100
AcDbSymbolTable
70
1
0
BLOCK_RECORD
5
1F
100
AcDbSymbolTableRecord
100
AcDbBlockTableRecord
2
*MODEL_SPACE
0
BLOCK_RECORD
5
1B
100
AcDbSymbolTableRecord
100
AcDbBlockTableRecord
2
*PAPER_SPACE
0
ENDTAB
0
ENDSEC
0
SECTION
2
BLOCKS
0
BLOCK
5
20
100
AcDbEntity
100
AcDbBlockBegin
2
*MODEL_SPACE
0
ENDBLK
5
21
100
AcDbEntity
100
AcDbBlockEnd
0
BLOCK
5
1C
100
AcDbEntity
100
AcDbBlockBegin
2
*PAPER_SPACE
0
ENDBLK
5
1D
100
AcDbEntity
100
AcDbBlockEnd
0
ENDSEC
0
SECTION
2
ENTITIES
0
LWPOLYLINE
5
100
100
AcDbEntity
8
0
100
AcDbPolyline
90
8
70
1
43
0.0
10
-186.39931208631
20
73.057969622404016
42
-0.41421356237309059
10
-176.39931208631003
20
83.057969622403959
10
175.04778649792797
20
83.057969622403931
42
-0.41704285241355499
10
185.04732087662998
20
72.961469834034347
10
183.6962609312273
20
-67.038530165965682
42
-0.41138992133761615
10
173.69672655252526
20
-76.942030377596041
10
-176.39931208631
20
-76.942030377596055
42
-0.41421356237309892
10
-186.39931208631
20
-66.942030377596069
0
LINE
5
101
100
AcDbEntity
8
0
100
AcDbLine
10
-186.39931208631
20
-66.942030377596069
30
0
11
-186.39931208631
21
58.057969622403931
31
0
0
LINE
5
102
100
AcDbEntity
8
0
100
AcDbLine
10
-8.478544075862775
20
83.057969622403945
30
0
11
-8.478544075862775
21
81.737134538888952
31
0
0
LINE
5
103
100
AcDbEntity
8
0
100
AcDbLine
10
5.5214559241371752
20
81.737134538843208
30
0
11
5.5214559241371752
21
83.057969622403945
31
0
0
ARC
5
104
100
AcDbEntity
8
0
100
AcDbCircle
10
3.580591692088344
20
76.962355572413443
30
0
40
5.1541699763887046
210
0
220
-0
230
1
100
AcDbArc
50
12.035976139803042
51
67.879116951021402
0
ARC
5
105
100
AcDbEntity
8
0
100
AcDbCircle
10
-6.5376799016129095
20
76.962358695953
30
0
40
5.1541670610459791
210
0
220
0
230
1
100
AcDbArc
50
112.12089552874228
51
167.96405245334671
0
LINE
5
106
100
AcDbEntity
8
0
100
AcDbLine
10
-11.978542712622291
20
78.037133148392286
30
0
11
-11.9785427126223
21
68.437133362969035
31
0
0
LINE
5
107
100
AcDbEntity
8
0
100
AcDbLine
10
9.0214568179910479
20
68.437133362969035
30
0
11
9.0214568179910479
21
78.037133148392272
31
0
0
LINE
5
108
100
AcDbEntity
8
0
100
AcDbLine
10
9.0214568179910479
20
78.037133148392272
30
0
11
8.6214568269317482
21
78.037133148392272
31
0
0
LINE
5
109
100
AcDbEntity
8
0
100
AcDbLine
10
-11.578542721563005
20
78.0371331483923
30
0
11
-11.978542712622291
21
78.037133148392286
31
0
0
LINE
5
110
100
AcDbEntity
8
0
100
AcDbLine
10
-11.9785427126223
20
68.437133362969035
30
0
11
-7.4785428132051557
21
68.437133362969035
31
0
0
LINE
5
111
100
AcDbEntity
8
0
100
AcDbLine
10
4.5214552608197156
20
68.437133362969035
30
0
11
9.0214568179910479
21
68.437133362969035
31
0
0
LINE
5
112
100
AcDbEntity
8
0
100
AcDbLine
10
-145
20
58.01310201813223
30
0
11
-124.8890921741863
21
70.402333194059025
31
0
0
LINE
5
113
100
AcDbEntity
8
0
100
AcDbLine
10
-124.8890921741863
20
70.402333194059025
30
0
11
-100
21
70.402333194059025
31
0
0
LINE
5
114
100
AcDbEntity
8
0
100
AcDbLine
10
-100
20
70.402333194059025
30
0
11
-75
21
60
31
0
0
LINE
5
115
100
AcDbEntity
8
0
100
AcDbLine
10
-75
20
60
30
0
11
-68.570059365157107
21
49.562553027177174
31
0
0
LINE
5
116
100
AcDbEntity
8
0
100
AcDbLine
10
-68.570059365157107
20
49.562553027177174
30
0
11
-50
21
45
31
0
0
LINE
5
117
100
AcDbEntity
8
0
100
AcDbLine
10
-50
20
45
30
0
11
-10
21
45
31
0
0
LINE
5
118
100
AcDbEntity
8
0
100
AcDbLine
10
-10
20
45
30
0
11
-7.4785428132051557
21
47.281276513588594
31
0
0
LINE
5
119
100
AcDbEntity
8
0
100
AcDbLine
10
-7.4785428132051557
20
47.281276513588594
30
0
11
-7.4785428132051557
21
68.437133362969035
31
0
0
LINE
5
120
100
AcDbEntity
8
0
100
AcDbLine
10
-135
20
26.232030740754766
30
0
11
-130
21
40
31
0
0
LINE
5
121
100
AcDbEntity
8
0
100
AcDbLine
10
-130
20
40
30
0
11
-105
21
40
31
0
0
LINE
5
122
100
AcDbEntity
8
0
100
AcDbLine
10
-105
20
40
30
0
11
-99.952463356203936
21
33.116015370377383
31
0
0
LINE
5
123
100
AcDbEntity
8
0
100
AcDbLine
10
-99.952463356203936
20
33.116015370377383
30
0
11
-85
21
33.116015370377383
31
0
0
LINE
5
124
100
AcDbEntity
8
0
100
AcDbLine
10
-85
20
33.116015370377383
30
0
11
-85
21
25
31
0
0
LINE
5
125
100
AcDbEntity
8
0
100
AcDbLine
10
-85
20
25
30
0
11
-81.055693087574596
21
19.620633771322098
31
0
0
LINE
5
126
100
AcDbEntity
8
0
100
AcDbLine
10
-81.055693087574596
20
19.620633771322098
30
0
11
-60
21
19.620633771322098
31
0
0
LINE
5
127
100
AcDbEntity
8
0
100
AcDbLine
10
-60
20
19.620633771322098
30
0
11
-50
21
15
31
0
0
LINE
5
128
100
AcDbEntity
8
0
100
AcDbLine
10
-50
20
15
30
0
11
-50
21
-10
31
0
0
LINE
5
129
100
AcDbEntity
8
0
100
AcDbLine
10
-50
20
-10
30
0
11
-40
21
-10
31
0
0
LINE
5
130
100
AcDbEntity
8
0
100
AcDbLine
10
-45
20
-30
30
0
11
-50
21
-30
31
0
0
LINE
5
131
100
AcDbEntity
8
0
100
AcDbLine
10
-50
20
-30
30
0
11
-50
21
-20
31
0
0
LINE
5
132
100
AcDbEntity
8
0
100
AcDbLine
10
-50
20
-20
30
0
11
-55
21
-15
31
0
0
LINE
5
133
100
AcDbEntity
8
0
100
AcDbLine
10
-55
20
-15
30
0
11
-90
21
-15
31
0
0
LINE
5
134
100
AcDbEntity
8
0
100
AcDbLine
10
-90
20
-15
30
0
11
-95
21
-20
31
0
0
LINE
5
135
100
AcDbEntity
8
0
100
AcDbLine
10
-95
20
-20
30
0
11
-95
21
-45
31
0
0
LINE
5
136
100
AcDbEntity
8
0
100
AcDbLine
10
-95
20
-45
30
0
11
-92.5
21
-47.499999999999993
31
0
0
LINE
5
137
100
AcDbEntity
8
0
100
AcDbLine
10
-92.5
20
-47.499999999999993
30
0
11
-81.368616592313742
21
-47.499999999999993
31
0
0
LINE
5
138
100
AcDbEntity
8
0
100
AcDbLine
10
-81.368616592313742
20
-47.499999999999993
30
0
11
-75
21
-50
31
0
0
LINE
5
139
100
AcDbEntity
8
0
100
AcDbLine
10
-75
20
-50
30
0
11
-75
21
-60
31
0
0
LINE
5
140
100
AcDbEntity
8
0
100
AcDbLine
10
-75
20
-60
30
0
11
-70
21
-60
31
0
0
LINE
5
141
100
AcDbEntity
8
0
100
AcDbLine
10
-70
20
-60
30
0
11
-40
21
-60
31
0
0
LINE
5
142
100
AcDbEntity
8
0
100
AcDbLine
10
-40
20
-60
30
0
11
-35
21
-50
31
0
0
LINE
5
143
100
AcDbEntity
8
0
100
AcDbLine
10
-35
20
-50
30
0
11
15
21
-50
31
0
0
LINE
5
144
100
AcDbEntity
8
0
100
AcDbLine
10
65
20
-45
30
0
11
82.654030932456493
21
-45
31
0
0
LINE
5
145
100
AcDbEntity
8
0
100
AcDbLine
10
82.654030932456493
20
-45
30
0
11
82.654030932456493
21
-30
31
0
0
LINE
5
146
100
AcDbEntity
8
0
100
AcDbLine
10
82.654030932456493
20
-30
30
0
11
100
21
-30
31
0
0
LINE
5
147
100
AcDbEntity
8
0
100
AcDbLine
10
100
20
-30
30
0
11
100
21
0
31
0
0
LINE
5
148
100
AcDbEntity
8
0
100
AcDbLine
10
100
20
0
30
0
11
80
21
0
31
0
0
LINE
5
149
100
AcDbEntity
8
0
100
AcDbLine
10
80
20
0
30
0
11
80
21
10
31
0
0
LINE
5
150
100
AcDbEntity
8
0
100
AcDbLine
10
80
20
10
30
0
11
85
21
15
31
0
0
LINE
5
151
100
AcDbEntity
8
0
100
AcDbLine
10
85
20
15
30
0
11
100
21
20
31
0
0
LINE
5
152
100
AcDbEntity
8
0
100
AcDbLine
10
100
20
20
30
0
11
110
21
20
31
0
0
LINE
5
153
100
AcDbEntity
8
0
100
AcDbLine
10
110
20
20
30
0
11
125
21
20
31
0
0
LINE
5
154
100
AcDbEntity
8
0
100
AcDbLine
10
125
20
20
30
0
11
130
21
10
31
0
0
LINE
5
155
100
AcDbEntity
8
0
100
AcDbLine
10
130
20
10
30
0
11
160
21
10
31
0
0
LINE
5
156
100
AcDbEntity
8
0
100
AcDbLine
10
160
20
10
30
0
11
165
21
15
31
0
0
LINE
5
157
100
AcDbEntity
8
0
100
AcDbLine
10
165
20
15
30
0
11
165
21
55
31
0
0
LINE
5
158
100
AcDbEntity
8
0
100
AcDbLine
10
165
20
55
30
0
11
160
21
60.000000000000007
31
0
0
LINE
5
159
100
AcDbEntity
8
0
100
AcDbLine
10
160
20
60.000000000000007
30
0
11
135
21
60.000000000000007
31
0
0
LINE
5
160
100
AcDbEntity
8
0
100
AcDbLine
10
135
20
60.000000000000007
30
0
11
130
21
65
31
0
0
LINE
5
161
100
AcDbEntity
8
0
100
AcDbLine
10
130
20
65
30
0
11
130
21
70
31
0
0
LINE
5
162
100
AcDbEntity
8
0
100
AcDbLine
10
130
20
70
30
0
11
75
21
70
31
0
0
LINE
5
163
100
AcDbEntity
8
0
100
AcDbLine
10
75
20
70
30
0
11
72.5
21
67.5
31
0
0
LINE
5
164
100
AcDbEntity
8
0
100
AcDbLine
10
72.5
20
67.5
30
0
11
70
21
55
31
0
0
LINE
5
165
100
AcDbEntity
8
0
100
AcDbLine
10
70
20
55
30
0
11
65
21
50
31
0
0
LINE
5
166
100
AcDbEntity
8
0
100
AcDbLine
10
65
20
50
30
0
11
45
21
50
31
0
0
LINE
5
167
100
AcDbEntity
8
0
100
AcDbLine
10
10
20
50
30
0
11
5
21
55
31
0
0
LINE
5
168
100
AcDbEntity
8
0
100
AcDbLine
10
5
20
55
30
0
11
4.5214552608197156
21
68.437133362969035
31
0
0
LINE
5
169
100
AcDbEntity
8
0
100
AcDbLine
10
15
20
-50
30
0
11
20
21
-50
31
0
0
LINE
5
170
100
AcDbEntity
8
0
100
AcDbLine
10
20
20
-50
30
0
11
20
21
-20
31
0
0
LINE
5
171
100
AcDbEntity
8
0
100
AcDbLine
10
20
20
-20
30
0
11
25
21
-15
31
0
0
LINE
5
172
100
AcDbEntity
8
0
100
AcDbLine
10
25
20
-15
30
0
11
30
21
-15
31
0
0
LINE
5
173
100
AcDbEntity
8
0
100
AcDbLine
10
30
20
-15
30
0
11
32.5
21
-17.5
31
0
0
LINE
5
174
100
AcDbEntity
8
0
100
AcDbLine
10
65
20
-55
30
0
11
60
21
-60
31
0
0
LINE
5
175
100
AcDbEntity
8
0
100
AcDbLine
10
60
20
-60
30
0
11
36.828005095150942
21
-60
31
0
0
LINE
5
176
100
AcDbEntity
8
0
100
AcDbLine
10
65
20
-55
30
0
11
65
21
-45
31
0
0
LINE
5
177
100
AcDbEntity
8
0
100
AcDbLine
10
32.5
20
-17.5
30
0
11
32.5
21
-55
31
0
0
LINE
5
178
100
AcDbEntity
8
0
100
AcDbLine
10
32.5
20
-55
30
0
11
36.828005095150942
21
-60
31
0
0
LINE
5
179
100
AcDbEntity
8
0
100
AcDbLine
10
-40
20
-10
30
0
11
-40
21
-25
31
0
0
LINE
5
180
100
AcDbEntity
8
0
100
AcDbLine
10
-40
20
-25
30
0
11
-45
21
-30
31
0
0
CIRCLE
5
181
100
AcDbEntity
8
0
100
AcDbCircle
10
-176.39931208630998
20
73.057969622403945
30
0
40
3.3499999999999872
210
0
220
0
230
1
0
CIRCLE
5
182
100
AcDbEntity
8
0
100
AcDbCircle
10
-19.600000288337476
20
73.00000108778481
30
1.9484341389201091e-11
40
3.3499999999999979
210
0
220
0
230
1
0
CIRCLE
5
183
100
AcDbEntity
8
0
100
AcDbCircle
10
16.52163281334602
20
73.053466178067481
30
1.9484341389201091e-11
40
3.3500000000000014
210
0
220
0
230
1
0
CIRCLE
5
184
100
AcDbEntity
8
0
100
AcDbCircle
10
175.04778649792792
20
73.057969622403917
30
0
40
3.349999999999993
210
0
220
0
230
1
0
CIRCLE
5
185
100
AcDbEntity
8
0
100
AcDbCircle
10
173.69672655252526
20
-66.942030377596069
30
-1.6313669730688399e-09
40
3.3499999999999996
210
0
220
0
230
1
0
CIRCLE
5
186
100
AcDbEntity
8
0
100
AcDbCircle
10
-1.3993120863099762
20
-66.942030377596069
30
1.9469351714262089e-11
40
3.3499999999999974
210
0
220
0
230
1
0
CIRCLE
5
187
100
AcDbEntity
8
0
100
AcDbCircle
10
-176.39931208631009
20
-66.942030377596126
30
0
40
3.3499999999999992
210
0
220
0
230
1
0
LINE
5
188
100
AcDbEntity
8
0
100
AcDbLine
10
-135
20
26.232030740754766
30
0
11
-160
21
26.232030740754766
31
0
0
LINE
5
189
100
AcDbEntity
8
0
100
AcDbLine
10
-160
20
26.232030740754766
30
0
11
-162.61103656782899
21
29.33867483943148
31
0
0
LINE
5
190
100
AcDbEntity
8
0
100
AcDbLine
10
-162.61103656782899
20
29.33867483943148
30
0
11
-162.61103656782899
21
51.835746654921465
31
0
0
LINE
5
191
100
AcDbEntity
8
0
100
AcDbLine
10
-162.61103656782899
20
51.835746654921465
30
0
11
-160
21
55
31
0
0
LINE
5
192
100
AcDbEntity
8
0
100
AcDbLine
10
-160
20
55
30
0
11
-150
21
55
31
0
0
LINE
5
193
100
AcDbEntity
8
0
100
AcDbLine
10
-150
20
55
30
0
11
-147.65979586137416
21
57.836037941808847
31
0
0
LINE
5
194
100
AcDbEntity
8
0
100
AcDbLine
10
-147.65979586137416
20
57.836037941808847
30
0
11
-145
21
58.01310201813223
31
0
0
LINE
5
195
100
AcDbEntity
8
0
100
AcDbLine
10
10
20
50
30
0
11
20
21
50
31
0
0
LINE
5
196
100
AcDbEntity
8
0
100
AcDbLine
10
20
20
50
30
0
11
20
21
25
31
0
0
LINE
5
197
100
AcDbEntity
8
0
100
AcDbLine
10
20
20
25
30
0
11
25
21
20
31
0
0
LINE
5
198
100
AcDbEntity
8
0
100
AcDbLine
10
25
20
20
30
0
11
40
21
20
31
0
0
LINE
5
199
100
AcDbEntity
8
0
100
AcDbLine
10
40
20
20
30
0
11
45
21
25
31
0
0
LINE
5
200
100
AcDbEntity
8
0
100
AcDbLine
10
45
20
25
30
0
11
45
21
50
31
0
0
ENDSEC
0
SECTION
2
OBJECTS
0
DICTIONARY
5
C
100
AcDbDictionary
3
ACAD_GROUP
350
D
3
ACAD_MLINESTYLE
350
17
0
DICTIONARY
5
D
100
AcDbDictionary
0
DICTIONARY
5
1A
330
C
100
AcDbDictionary
0
DICTIONARY
5
17
100
AcDbDictionary
0
ENDSEC
0
EOF
