0
SECTION
2
HEADER
9
$INSUNITS
70
4
9
$ACADVER
1
AC1014
9
$HANDSEED
5
FFFF
0
ENDSEC
0
SECTION
2
TABLES
0
TABLE
2
VPORT
5
8
100
AcDbSymbolTable
0
ENDTAB
0
TABLE
2
LTYPE
5
5
100
AcDbSymbolTable
0
LTYPE
5
14
100
AcDbSymbolTableRecord
100
AcDbLinetypeTableRecord
2
BYBLOCK
70
0
0
LTYPE
5
15
100
AcDbSymbolTableRecord
100
AcDbLinetypeTableRecord
2
BYLAYER
70
0
0
ENDTAB
0
TABLE
2
LAYER
5
2
100
AcDbSymbolTable
70
2
0
LAYER
5
50
100
AcDbSymbolTableRecord
100
AcDbLayerTableRecord
2
0
70
0
6
CONTINUOUS
0
ENDTAB
0
TABLE
2
STYLE
5
3
100
AcDbSymbolTable
70
1
0
STYLE
5
11
100
AcDbSymbolTableRecord
100
AcDbTextStyleTableRecord
2
STANDARD
70
0
0
ENDTAB
0
TABLE
2
VIEW
5
6
100
AcDbSymbolTable
70
0
0
ENDTAB
0
TABLE
2
UCS
5
7
100
AcDbSymbolTable
70
0
0
ENDTAB
0
TABLE
2
APPID
5
9
100
AcDbSymbolTable
70
2
0
APPID
5
12
100
AcDbSymbolTableRecord
100
AcDbRegAppTableRecord
2
ACAD
70
0
0
ENDTAB
0
TABLE
2
DIMSTYLE
5
A
100
AcDbSymbolTable
70
1
0
ENDTAB
0
TABLE
2
BLOCK_RECORD
5
1
100
AcDbSymbolTable
70
1
0
BLOCK_RECORD
5
1F
100
AcDbSymbolTableRecord
100
AcDbBlockTableRecord
2
*MODEL_SPACE
0
BLOCK_RECORD
5
1B
100
AcDbSymbolTableRecord
100
AcDbBlockTableRecord
2
*PAPER_SPACE
0
ENDTAB
0
ENDSEC
0
SECTION
2
BLOCKS
0
BLOCK
5
20
100
AcDbEntity
100
AcDbBlockBegin
2
*MODEL_SPACE
0
ENDBLK
5
21
100
AcDbEntity
100
AcDbBlockEnd
0
BLOCK
5
1C
100
AcDbEntity
100
AcDbBlockBegin
2
*PAPER_SPACE
0
ENDBLK
5
1D
100
AcDbEntity
100
AcDbBlockEnd
0
ENDSEC
0
SECTION
2
ENTITIES
0
ARC
5
100
100
AcDbEntity
8
0
100
AcDbCircle
10
189.97990377839841
20
153.9043859500095
30
0
40
5.1541699763886859
210
0
220
-0
230
1
100
AcDbArc
50
12.03597613980307
51
67.879116951021544
0
ARC
5
101
100
AcDbEntity
8
0
100
AcDbCircle
10
179.86163218469713
20
153.90438907354905
30
0
40
5.1541670610459818
210
0
220
0
230
1
100
AcDbArc
50
112.1208955287423
51
167.96405245334671
0
LINE
5
102
100
AcDbEntity
8
0
100
AcDbLine
10
195.4207689043011
20
145.3791637405651
30
0
11
195.4207689043011
21
154.97916352598833
31
0
0
LINE
5
103
100
AcDbEntity
8
0
100
AcDbLine
10
174.82076936474704
20
154.97916352598835
30
0
11
174.42076937368773
21
154.97916352598835
31
0
0
LINE
5
104
100
AcDbEntity
8
0
100
AcDbLine
10
191.92076801044723
20
158.67916491643928
30
0
11
191.9207680104472
21
160
31
0
0
LINE
5
105
100
AcDbEntity
8
0
100
AcDbLine
10
174.42076937368773
20
154.97916352598835
30
0
11
174.42076937368773
21
145.3791637405651
31
0
0
LINE
5
106
100
AcDbEntity
8
0
100
AcDbLine
10
195.4207689043011
20
154.97916352598833
30
0
11
195.0207689132418
21
154.97916352598833
31
0
0
LINE
5
107
100
AcDbEntity
8
0
100
AcDbLine
10
296.39931208631003
20
96.942030377596069
30
0
11
311.39931208631003
21
96.942030377596069
31
0
0
LINE
5
108
100
AcDbEntity
8
0
100
AcDbLine
10
174.42076937368773
20
145.3791637405651
30
0
11
178.9207692731049
21
145.3791637405651
31
0
0
LINE
5
109
100
AcDbEntity
8
0
100
AcDbLine
10
256.39931208631003
20
131.94203037759607
30
0
11
251.39931208631003
21
126.94203037759607
31
0
0
LINE
5
110
100
AcDbEntity
8
0
100
AcDbLine
10
346.39931208631003
20
136.94203037759607
30
0
11
321.39931208631003
21
136.94203037759607
31
0
0
LINE
5
111
100
AcDbEntity
8
0
100
AcDbLine
10
258.89931208631003
20
144.44203037759607
30
0
11
256.39931208631003
21
131.94203037759607
31
0
0
LINE
5
112
100
AcDbEntity
8
0
100
AcDbLine
10
177.92076801044729
20
160
30
0
11
177.92076801044726
21
158.67916491648501
31
0
0
LINE
5
113
100
AcDbEntity
8
0
100
AcDbLine
10
269.05334301876655
20
46.942030377596062
30
0
11
286.39931208631003
21
46.942030377596062
31
0
0
LINE
5
114
100
AcDbEntity
8
0
100
AcDbLine
10
191.39931208631003
20
131.94203037759607
30
0
11
190.92076734712975
21
145.3791637405651
31
0
0
LINE
5
115
100
AcDbEntity
8
0
100
AcDbLine
10
206.39931208631003
20
26.942030377596062
30
0
11
206.39931208631003
21
56.942030377596062
31
0
0
LINE
5
116
100
AcDbEntity
8
0
100
AcDbLine
10
211.39931208631003
20
61.942030377596062
30
0
11
216.39931208631003
21
61.942030377596062
31
0
0
LINE
5
117
100
AcDbEntity
8
0
100
AcDbLine
10
251.39931208631003
20
126.94203037759607
30
0
11
231.39931208631003
21
126.94203037759607
31
0
0
LINE
5
118
100
AcDbEntity
8
0
100
AcDbLine
10
351.39931208631003
20
131.94203037759607
30
0
11
346.39931208631003
21
136.94203037759607
31
0
0
LINE
5
119
100
AcDbEntity
8
0
100
AcDbLine
10
251.39931208631003
20
21.942030377596062
30
0
11
246.39931208631003
21
16.942030377596062
31
0
0
LINE
5
120
100
AcDbEntity
8
0
100
AcDbLine
10
81.399312086310047
20
116.94203037759607
30
0
11
86.446848730106112
21
110.05804574797345
31
0
0
LINE
5
121
100
AcDbEntity
8
0
100
AcDbLine
10
105.03069549399629
20
29.442030377596069
30
0
11
111.39931208631005
21
26.942030377596062
31
0
0
LINE
5
122
100
AcDbEntity
8
0
100
AcDbLine
10
266.39931208631003
20
76.942030377596055
30
0
11
266.39931208631003
21
86.942030377596069
31
0
0
LINE
5
123
100
AcDbEntity
8
0
100
AcDbLine
10
316.39931208631003
20
86.942030377596069
30
0
11
346.39931208631003
21
86.942030377596069
31
0
0
LINE
5
124
100
AcDbEntity
8
0
100
AcDbLine
10
136.39931208631003
20
121.94203037759607
30
0
11
176.39931208631003
21
121.94203037759607
31
0
0
LINE
5
125
100
AcDbEntity
8
0
100
AcDbLine
10
216.39931208631003
20
61.942030377596062
30
0
11
218.89931208631003
21
59.442030377596062
31
0
0
LINE
5
126
100
AcDbEntity
8
0
100
AcDbLine
10
201.39931208631003
20
26.942030377596062
30
0
11
206.39931208631003
21
26.942030377596062
31
0
0
LINE
5
127
100
AcDbEntity
8
0
100
AcDbLine
10
136.39931208631003
20
46.942030377596062
30
0
11
136.39931208631003
21
56.942030377596062
31
0
0
LINE
5
128
100
AcDbEntity
8
0
100
AcDbLine
10
51.399312086310047
20
103.17406111835083
30
0
11
56.399312086310047
21
116.94203037759607
31
0
0
LINE
5
129
100
AcDbEntity
8
0
100
AcDbLine
10
206.39931208631003
20
56.942030377596062
30
0
11
211.39931208631003
21
61.942030377596062
31
0
0
LINE
5
130
100
AcDbEntity
8
0
100
AcDbLine
10
86.446848730106112
20
110.05804574797345
30
0
11
101.39931208631005
21
110.05804574797345
31
0
0
LINE
5
131
100
AcDbEntity
8
0
100
AcDbLine
10
196.39931208631003
20
126.94203037759607
30
0
11
191.39931208631003
21
131.94203037759607
31
0
0
LINE
5
132
100
AcDbEntity
8
0
100
AcDbLine
10
56.399312086310047
20
116.94203037759607
30
0
11
81.399312086310047
21
116.94203037759607
31
0
0
LINE
5
133
100
AcDbEntity
8
0
100
AcDbLine
10
86.399312086310047
20
147.34436357165509
30
0
11
111.39931208631005
21
136.94203037759607
31
0
0
LINE
5
134
100
AcDbEntity
8
0
100
AcDbLine
10
96.399312086310047
20
61.942030377596062
30
0
11
91.399312086310047
21
56.942030377596062
31
0
0
LINE
5
135
100
AcDbEntity
8
0
100
AcDbLine
10
131.39931208631003
20
61.942030377596062
30
0
11
96.399312086310047
21
61.942030377596062
31
0
0
LINE
5
136
100
AcDbEntity
8
0
100
AcDbLine
10
126.39931208631005
20
96.562664148918159
30
0
11
136.39931208631003
21
91.942030377596069
31
0
0
LINE
5
137
100
AcDbEntity
8
0
100
AcDbLine
10
111.39931208631005
20
136.94203037759607
30
0
11
117.82925272115293
21
126.50458340477326
31
0
0
LINE
5
138
100
AcDbEntity
8
0
100
AcDbLine
10
286.39931208631003
20
96.942030377596069
30
0
11
296.39931208631003
21
96.942030377596069
31
0
0
LINE
5
139
100
AcDbEntity
8
0
100
AcDbLine
10
269.05334301876655
20
31.942030377596062
30
0
11
269.05334301876655
21
46.942030377596062
31
0
0
LINE
5
140
100
AcDbEntity
8
0
100
AcDbLine
10
93.899312086310047
20
29.442030377596069
30
0
11
105.03069549399629
21
29.442030377596069
31
0
0
LINE
5
141
100
AcDbEntity
8
0
100
AcDbLine
10
176.39931208631003
20
121.94203037759607
30
0
11
178.9207692731049
21
124.22330689118466
31
0
0
LINE
5
142
100
AcDbEntity
8
0
100
AcDbLine
10
116.39931208631005
20
16.942030377596062
30
0
11
146.39931208631003
21
16.942030377596062
31
0
0
LINE
5
143
100
AcDbEntity
8
0
100
AcDbLine
10
41.399312086310047
20
134.9551323957283
30
0
11
61.510219912123745
21
147.34436357165509
31
0
0
LINE
5
144
100
AcDbEntity
8
0
100
AcDbLine
10
261.39931208631003
20
146.94203037759607
30
0
11
258.89931208631003
21
144.44203037759607
31
0
0
LINE
5
145
100
AcDbEntity
8
0
100
AcDbLine
10
91.399312086310047
20
56.942030377596062
30
0
11
91.399312086310047
21
31.942030377596062
31
0
0
LINE
5
146
100
AcDbEntity
8
0
100
AcDbLine
10
101.39931208631005
20
101.94203037759607
30
0
11
105.34361899873545
21
96.562664148918159
31
0
0
LINE
5
147
100
AcDbEntity
8
0
100
AcDbLine
10
321.39931208631003
20
136.94203037759607
30
0
11
316.39931208631003
21
141.94203037759607
31
0
0
LINE
5
148
100
AcDbEntity
8
0
100
AcDbLine
10
117.82925272115293
20
126.50458340477326
30
0
11
136.39931208631003
21
121.94203037759607
31
0
0
LINE
5
149
100
AcDbEntity
8
0
100
AcDbLine
10
61.510219912123745
20
147.34436357165509
30
0
11
86.399312086310047
21
147.34436357165509
31
0
0
LINE
5
150
100
AcDbEntity
8
0
100
AcDbLine
10
351.39931208631003
20
91.942030377596069
30
0
11
351.39931208631003
21
131.94203037759607
31
0
0
LINE
5
151
100
AcDbEntity
8
0
100
AcDbLine
10
178.9207692731049
20
124.22330689118466
30
0
11
178.9207692731049
21
145.3791637405651
31
0
0
LINE
5
152
100
AcDbEntity
8
0
100
AcDbLine
10
91.399312086310047
20
31.942030377596062
30
0
11
93.899312086310047
21
29.442030377596069
31
0
0
LINE
5
153
100
AcDbEntity
8
0
100
AcDbLine
10
26.399312086310047
20
131.94203037759607
30
0
11
36.399312086310047
21
131.94203037759607
31
0
0
LINE
5
154
100
AcDbEntity
8
0
100
AcDbLine
10
346.39931208631003
20
86.942030377596069
30
0
11
351.39931208631003
21
91.942030377596069
31
0
0
LINE
5
155
100
AcDbEntity
8
0
100
AcDbLine
10
246.39931208631003
20
16.942030377596062
30
0
11
223.22731718146102
21
16.942030377596062
31
0
0
LINE
5
156
100
AcDbEntity
8
0
100
AcDbLine
10
266.39931208631003
20
86.942030377596069
30
0
11
271.39931208631003
21
91.942030377596069
31
0
0
LINE
5
157
100
AcDbEntity
8
0
100
AcDbLine
10
251.39931208631003
20
31.942030377596062
30
0
11
269.05334301876655
21
31.942030377596062
31
0
0
LINE
5
158
100
AcDbEntity
8
0
100
AcDbLine
10
101.39931208631005
20
110.05804574797345
30
0
11
101.39931208631005
21
101.94203037759607
31
0
0
LINE
5
159
100
AcDbEntity
8
0
100
AcDbLine
10
136.39931208631003
20
66.942030377596055
30
0
11
146.39931208631003
21
66.942030377596055
31
0
0
LINE
5
160
100
AcDbEntity
8
0
100
AcDbLine
10
316.39931208631003
20
141.94203037759607
30
0
11
316.39931208631003
21
146.94203037759607
31
0
0
LINE
5
161
100
AcDbEntity
8
0
100
AcDbLine
10
316.39931208631003
20
146.94203037759607
30
0
11
261.39931208631003
21
146.94203037759607
31
0
0
LINE
5
162
100
AcDbEntity
8
0
100
AcDbLine
10
105.34361899873545
20
96.562664148918159
30
0
11
126.39931208631005
21
96.562664148918159
31
0
0
LINE
5
163
100
AcDbEntity
8
0
100
AcDbLine
10
146.39931208631003
20
16.942030377596062
30
0
11
151.39931208631003
21
26.942030377596062
31
0
0
LINE
5
164
100
AcDbEntity
8
0
100
AcDbLine
10
141.39931208631003
20
46.942030377596062
30
0
11
136.39931208631003
21
46.942030377596062
31
0
0
LINE
5
165
100
AcDbEntity
8
0
100
AcDbLine
10
271.39931208631003
20
91.942030377596069
30
0
11
286.39931208631003
21
96.942030377596069
31
0
0
LINE
5
166
100
AcDbEntity
8
0
100
AcDbLine
10
286.39931208631003
20
46.942030377596062
30
0
11
286.39931208631003
21
76.942030377596055
31
0
0
LINE
5
167
100
AcDbEntity
8
0
100
AcDbLine
10
286.39931208631003
20
76.942030377596055
30
0
11
266.39931208631003
21
76.942030377596055
31
0
0
LINE
5
168
100
AcDbEntity
8
0
100
AcDbLine
10
136.39931208631003
20
91.942030377596069
30
0
11
136.39931208631003
21
66.942030377596055
31
0
0
LINE
5
169
100
AcDbEntity
8
0
100
AcDbLine
10
311.39931208631003
20
96.942030377596069
30
0
11
316.39931208631003
21
86.942030377596069
31
0
0
LINE
5
170
100
AcDbEntity
8
0
100
AcDbLine
10
111.39931208631005
20
26.942030377596062
30
0
11
111.39931208631005
21
16.942030377596062
31
0
0
LINE
5
171
100
AcDbEntity
8
0
100
AcDbLine
10
151.39931208631003
20
26.942030377596062
30
0
11
201.39931208631003
21
26.942030377596062
31
0
0
LINE
5
172
100
AcDbEntity
8
0
100
AcDbLine
10
190.92076734712975
20
145.3791637405651
30
0
11
195.4207689043011
21
145.3791637405651
31
0
0
LINE
5
173
100
AcDbEntity
8
0
100
AcDbLine
10
136.39931208631003
20
56.942030377596062
30
0
11
131.39931208631003
21
61.942030377596062
31
0
0
LINE
5
174
100
AcDbEntity
8
0
100
AcDbLine
10
111.39931208631005
20
16.942030377596062
30
0
11
116.39931208631005
21
16.942030377596062
31
0
0
LINE
5
175
100
AcDbEntity
8
0
100
AcDbLine
10
218.89931208631003
20
21.942030377596062
30
0
11
223.22731718146102
21
16.942030377596062
31
0
0
LINE
5
176
100
AcDbEntity
8
0
100
AcDbLine
10
206.39931208631003
20
126.94203037759607
30
0
11
206.39931208631003
21
101.94203037759607
31
0
0
LINE
5
177
100
AcDbEntity
8
0
100
AcDbLine
10
38.739516224935912
20
134.77806831940489
30
0
11
41.399312086310047
21
134.9551323957283
31
0
0
LINE
5
178
100
AcDbEntity
8
0
100
AcDbLine
10
26.399312086310047
20
103.17406111835083
30
0
11
23.788275518481043
21
106.28070521702753
31
0
0
LINE
5
179
100
AcDbEntity
8
0
100
AcDbLine
10
211.39931208631003
20
96.942030377596069
30
0
11
226.39931208631003
21
96.942030377596069
31
0
0
LINE
5
180
100
AcDbEntity
8
0
100
AcDbLine
10
36.399312086310047
20
131.94203037759607
30
0
11
38.739516224935912
21
134.77806831940489
31
0
0
LINE
5
181
100
AcDbEntity
8
0
100
AcDbLine
10
196.39931208631003
20
126.94203037759607
30
0
11
206.39931208631003
21
126.94203037759607
31
0
0
LINE
5
182
100
AcDbEntity
8
0
100
AcDbLine
10
146.39931208631003
20
66.942030377596055
30
0
11
146.39931208631003
21
51.942030377596062
31
0
0
LINE
5
183
100
AcDbEntity
8
0
100
AcDbLine
10
231.39931208631003
20
101.94203037759607
30
0
11
231.39931208631003
21
126.94203037759607
31
0
0
LINE
5
184
100
AcDbEntity
8
0
100
AcDbLine
10
51.399312086310047
20
103.17406111835083
30
0
11
26.399312086310047
21
103.17406111835083
31
0
0
LINE
5
185
100
AcDbEntity
8
0
100
AcDbLine
10
206.39931208631003
20
101.94203037759607
30
0
11
211.39931208631003
21
96.942030377596069
31
0
0
LINE
5
186
100
AcDbEntity
8
0
100
AcDbLine
10
251.39931208631003
20
21.942030377596062
30
0
11
251.39931208631003
21
31.942030377596062
31
0
0
LINE
5
187
100
AcDbEntity
8
0
100
AcDbLine
10
226.39931208631003
20
96.942030377596069
30
0
11
231.39931208631003
21
101.94203037759607
31
0
0
LINE
5
188
100
AcDbEntity
8
0
100
AcDbLine
10
218.89931208631003
20
59.442030377596062
30
0
11
218.89931208631003
21
21.942030377596062
31
0
0
LINE
5
189
100
AcDbEntity
8
0
100
AcDbLine
10
23.788275518481043
20
106.28070521702753
30
0
11
23.788275518481043
21
128.77777703251752
31
0
0
LINE
5
190
100
AcDbEntity
8
0
100
AcDbLine
10
146.39931208631003
20
51.942030377596062
30
0
11
141.39931208631003
21
46.942030377596062
31
0
0
LINE
5
191
100
AcDbEntity
8
0
100
AcDbLine
10
23.788275518481043
20
128.77777703251752
30
0
11
26.399312086310047
21
131.94203037759607
31
0
0
LWPOLYLINE
5
192
100
AcDbEntity
8
0
100
AcDbPolyline
90
8
70
1
43
0.0
10
360
20
3.1086244689504383e-14
10
10
20
-1.1102230246251565e-15
42
-0.41421356237309559
10
0
20
9.9999999999999822
10
-1.3322676295501878e-14
20
150.00000000000003
42
-0.41421356237309542
10
10
20
160
10
360
20
159.99999999999997
42
-0.4142135623730992
10
370.00000000000006
20
150.00000000000003
10
370.00000000000006
20
9.9999999999999822
42
-0.41421356237309609
0
CIRCLE
5
193
100
AcDbEntity
8
0
100
AcDbCircle
10
210
20
146.24999999999997
30
1.9484341389201056e-11
40
3.3500000000000001
210
0
220
0
230
1
0
CIRCLE
5
194
100
AcDbEntity
8
0
100
AcDbCircle
10
160
20
146.25
30
1.9484341389201056e-11
40
3.3500000000000001
210
0
220
0
230
1
0
CIRCLE
5
195
100
AcDbEntity
8
0
100
AcDbCircle
10
185
20
13.750000000000018
30
1.9469351714262089e-11
40
3.3500000000000001
210
0
220
0
230
1
0
CIRCLE
5
196
100
AcDbEntity
8
0
100
AcDbCircle
10
13.75
20
13.75
30
0
40
3.3500000000000001
210
0
220
0
230
1
0
CIRCLE
5
197
100
AcDbEntity
8
0
100
AcDbCircle
10
356.25
20
146.24999999999997
30
-1.6313519833939019e-09
40
3.3500000000000001
210
0
220
0
230
1
0
CIRCLE
5
198
100
AcDbEntity
8
0
100
AcDbCircle
10
356.25
20
13.750000000000036
30
0
40
3.3500000000000001
210
0
220
0
230
1
0
CIRCLE
5
199
100
AcDbEntity
8
0
100
AcDbCircle
10
13.749999999999993
20
146.25
30
1.6703206661723021e-09
40
3.3500000000000001
210
0
220
0
230
1
0
ENDSEC
0
SECTION
2
OBJECTS
0
DICTIONARY
5
C
100
AcDbDictionary
3
ACAD_GROUP
350
D
3
ACAD_MLINESTYLE
350
17
0
DICTIONARY
5
D
100
AcDbDictionary
0
DICTIONARY
5
1A
330
C
100
AcDbDictionary
0
DICTIONARY
5
17
100
AcDbDictionary
0
ENDSEC
0
EOF
