0
SECTION
2
HEADER
9
$INSUNITS
70
4
9
$ACADVER
1
AC1014
9
$HANDSEED
5
FFFF
0
ENDSEC
0
SECTION
2
TABLES
0
TABLE
2
VPORT
5
8
100
AcDbSymbolTable
0
ENDTAB
0
TABLE
2
LTYPE
5
5
100
AcDbSymbolTable
0
LTYPE
5
14
100
AcDbSymbolTableRecord
100
AcDbLinetypeTableRecord
2
BYBLOCK
70
0
0
LTYPE
5
15
100
AcDbSymbolTableRecord
100
AcDbLinetypeTableRecord
2
BYLAYER
70
0
0
ENDTAB
0
TABLE
2
LAYER
5
2
100
AcDbSymbolTable
70
2
0
LAYER
5
50
100
AcDbSymbolTableRecord
100
AcDbLayerTableRecord
2
0
70
0
6
CONTINUOUS
0
ENDTAB
0
TABLE
2
STYLE
5
3
100
AcDbSymbolTable
70
1
0
STYLE
5
11
100
AcDbSymbolTableRecord
100
AcDbTextStyleTableRecord
2
STANDARD
70
0
0
ENDTAB
0
TABLE
2
VIEW
5
6
100
AcDbSymbolTable
70
0
0
ENDTAB
0
TABLE
2
UCS
5
7
100
AcDbSymbolTable
70
0
0
ENDTAB
0
TABLE
2
APPID
5
9
100
AcDbSymbolTable
70
2
0
APPID
5
12
100
AcDbSymbolTableRecord
100
AcDbRegAppTableRecord
2
ACAD
70
0
0
ENDTAB
0
TABLE
2
DIMSTYLE
5
A
100
AcDbSymbolTable
70
1
0
ENDTAB
0
TABLE
2
BLOCK_RECORD
5
1
100
AcDbSymbolTable
70
1
0
BLOCK_RECORD
5
1F
100
AcDbSymbolTableRecord
100
AcDbBlockTableRecord
2
*MODEL_SPACE
0
BLOCK_RECORD
5
1B
100
AcDbSymbolTableRecord
100
AcDbBlockTableRecord
2
*PAPER_SPACE
0
ENDTAB
0
ENDSEC
0
SECTION
2
BLOCKS
0
BLOCK
5
20
100
AcDbEntity
100
AcDbBlockBegin
2
*MODEL_SPACE
0
ENDBLK
5
21
100
AcDbEntity
100
AcDbBlockEnd
0
BLOCK
5
1C
100
AcDbEntity
100
AcDbBlockBegin
2
*PAPER_SPACE
0
ENDBLK
5
1D
100
AcDbEntity
100
AcDbBlockEnd
0
ENDSEC
0
SECTION
2
ENTITIES
0
LWPOLYLINE
5
100
100
AcDbEntity
8
0
100
AcDbPolyline
90
4
70
1
43
0.0
10
44.495029685791451
20
-55.820760600288146
10
42.063955198499428
20
-42.033452058109333
10
55.851263740678256
20
-39.60237757081731
10
58.282338227970307
20
-53.389686112996188
0
LWPOLYLINE
5
101
100
AcDbEntity
8
0
100
AcDbPolyline
90
4
70
1
43
0.0
10
-139.48515605304826
20
47.802088032713897
10
-141.91623054043029
20
34.014779490551042
10
-155.70353908259312
20
36.445853977933048
10
-153.27246459521115
20
50.233162520095931
0
LWPOLYLINE
5
102
100
AcDbEntity
8
0
100
AcDbPolyline
90
4
70
1
43
0.0
10
91.085634552280823
20
60.029640944870984
10
93.516709039572817
20
46.242332402692128
10
79.729400497393996
20
43.81125791540012
10
77.298326010101945
20
57.59856645757894
0
LWPOLYLINE
5
103
100
AcDbEntity
8
0
100
AcDbPolyline
90
4
70
1
43
0.0
10
-50.191499467878174
20
-56.163682695201018
10
-47.76042498049614
20
-42.376374153038142
10
-61.547733522659044
20
-39.945299665656094
10
-63.978808010041064
20
-53.732608207819005
0
LWPOLYLINE
5
104
100
AcDbEntity
8
0
100
AcDbPolyline
90
4
70
1
43
0.0
10
-124.88909217418632
20
61.475233948858303
10
-111.10178363202344
20
59.044159461476305
10
-113.53285811940549
20
45.256850919313429
10
-127.32016666156836
20
47.687925406695413
0
LWPOLYLINE
5
105
100
AcDbEntity
8
0
100
AcDbPolyline
90
4
70
1
43
0.0
10
73.294800968815835
20
11.198439440039557
10
59.507492426637008
20
8.7673649527475845
10
57.076417939344999
20
22.554673494926419
10
70.863726481523855
20
24.985747982218381
0
LWPOLYLINE
5
106
100
AcDbEntity
8
0
100
AcDbPolyline
90
4
70
1
43
0.0
10
-64.214345978005312
20
-26.274557988154172
10
-66.64542046538736
20
-40.061866530317047
10
-80.432729007550222
20
-37.63079204293502
10
-78.001654520168216
20
-23.843483500772138
0
LWPOLYLINE
5
107
100
AcDbEntity
8
0
100
AcDbPolyline
90
4
70
1
43
0.0
10
88.75910573590707
20
-7.3987452412640931
10
91.190180223199121
20
-21.186053783442922
10
77.402871681020272
20
-23.617128270734934
10
74.971797193728278
20
-9.8298197285560853
0
LWPOLYLINE
5
108
100
AcDbEntity
8
0
100
AcDbPolyline
90
4
70
1
43
0.0
10
123.46531929825291
20
43.39966753083764
10
109.6780107560741
20
40.968593043545631
10
112.10908524336608
20
27.1812845013668
10
125.89639378554486
20
29.612358988658805
0
LWPOLYLINE
5
109
100
AcDbEntity
8
0
100
AcDbPolyline
90
4
70
1
43
0.0
10
-72.287499357577815
20
43.061314399895643
10
-58.500190815414868
20
40.63023991251363
10
-60.931265302796916
20
26.842931370350747
10
-74.71857384495982
20
29.27400585773276
0
CIRCLE
5
110
100
AcDbEntity
8
0
100
AcDbCircle
10
-173.69669945663418
20
-66.946533821932505
30
-5.3125780177114176e-12
40
2.5999999999999868
210
-9.4225817624606235e-12
220
1.2246469529825531e-16
230
-1
0
LWPOLYLINE
5
111
100
AcDbEntity
8
0
100
AcDbPolyline
90
4
70
1
43
0.0
10
138.06138317702562
20
29.726521614597814
10
151.84869171920451
20
32.157596101889865
10
154.2797662064965
20
18.370287559711002
10
140.49245766431767
20
15.939213072419031
0
LWPOLYLINE
5
112
100
AcDbEntity
8
0
100
AcDbPolyline
90
4
70
1
43
0.0
10
80.597641385712535
20
38.88721915033625
10
94.384949927891327
20
41.318293637628265
10
96.816024415183335
20
27.530985095449431
10
83.028715873004558
20
25.099910608157426
0
LWPOLYLINE
5
113
100
AcDbEntity
8
0
100
AcDbPolyline
90
4
70
1
43
0.0
10
134.76206780141507
20
48.437868921840547
10
148.54937634359388
20
50.868943409132505
10
150.98045083088584
20
37.081634866953721
10
137.19314228870707
20
34.650560379661719
0
LWPOLYLINE
5
114
100
AcDbEntity
8
0
100
AcDbPolyline
90
4
70
1
43
0.0
10
67.564411105913209
20
43.697095289461103
10
69.995485593205288
20
29.909786747282276
10
56.20817705102646
20
27.478712259990271
10
53.777102563734417
20
41.26602080216913
0
CIRCLE
5
115
100
AcDbEntity
8
0
100
AcDbCircle
10
-16.52163281334602
20
73.053466178067495
30
-1.7515183095183031e-10
40
2.5999999999999983
210
-9.4225817624606235e-12
220
1.2246469529825531e-16
230
-1
0
CIRCLE
5
116
100
AcDbEntity
8
0
100
AcDbCircle
10
-175.04791346019613
20
73.053466178067495
30
-1.804234706245215e-11
40
2.5999999999999974
210
-9.4225817624606235e-12
220
1.2246469529825531e-16
230
-1
0
LWPOLYLINE
5
117
100
AcDbEntity
8
0
100
AcDbPolyline
90
4
70
1
43
0.0
10
122.59707840993441
20
48.323706295901502
10
108.80976986775551
20
45.892631808609494
10
106.37869538046345
20
59.679940350788314
10
120.16600392264236
20
62.11101483808033
0
LWPOLYLINE
5
118
100
AcDbEntity
8
0
100
AcDbPolyline
90
4
70
1
43
0.0
10
54.003023576857288
20
-0.32663431500059764
10
67.790332119036108
20
2.1044401722914108
10
70.221406606328131
20
-11.682868369887434
10
56.434098064149296
20
-14.11394285717944
0
CIRCLE
5
119
100
AcDbEntity
8
0
100
AcDbCircle
10
176.39935008015937
20
73.053466178067495
30
-8.1744207266092809e-12
40
2.6000000000000134
210
-9.4225817624606235e-12
220
1.2246469529825531e-16
230
-1
0
LWPOLYLINE
5
120
100
AcDbEntity
8
0
100
AcDbPolyline
90
4
70
1
43
0.0
10
74.736259225584718
20
-37.287869948219544
10
60.948950683405826
20
-39.718944435511567
10
58.517876196113889
20
-25.931635893332718
10
72.305184738292709
20
-23.500561406040731
0
LWPOLYLINE
5
121
100
AcDbEntity
8
0
100
AcDbPolyline
90
4
70
1
43
0.0
10
53.767485608713699
20
-27.784684534664063
10
39.980177066534843
20
-30.215759021956075
10
37.549102579242913
20
-16.428450479777247
10
51.33641112142169
20
-13.997375992485237
0
LWPOLYLINE
5
122
100
AcDbEntity
8
0
100
AcDbPolyline
90
4
70
1
43
0.0
10
-84.452488749057636
20
43.175477025914113
10
-82.021414261675631
20
56.962785568076988
10
-95.808722803838492
20
59.393860055459015
10
-98.239797291220526
20
45.606551513296132
0
CIRCLE
5
123
100
AcDbEntity
8
0
100
AcDbCircle
10
176.39931208631
20
-66.942030377596055
30
-8.1769335576514336e-12
40
2.6000000000000121
210
-9.4225817624606235e-12
220
1.2246469529825531e-16
230
-1
0
CIRCLE
5
124
100
AcDbEntity
8
0
100
AcDbCircle
10
1.3993120863099762
20
-66.946533821932519
30
-6.2924177566727528e-12
40
2.6000000000000005
210
-9.4225817624606235e-12
220
1.2246469529825531e-16
230
-1
0
LINE
5
125
100
AcDbEntity
8
0
100
AcDbLine
10
-186.39931208630998
20
-66.942030377596055
30
0
11
-186.39931208630998
21
58.057969622403938
31
0
0
LWPOLYLINE
5
126
100
AcDbEntity
8
0
100
AcDbPolyline
90
4
70
1
43
0.0
10
5.6006879136900327
20
10.999999999999996
10
-8.3993500801593246
20
10.999999999999996
10
-8.3993500801593299
20
25
10
5.6006879136900327
20
25
0
LWPOLYLINE
5
127
100
AcDbEntity
8
0
100
AcDbPolyline
90
8
70
1
43
0.0
10
173.69669945663415
20
-76.946533821932505
10
-176.39935008015942
20
-76.946533821932562
42
-0.4142135623730932
10
-186.39935008015937
20
-66.946533821932633
10
-186.39935008015937
20
73.053466178067566
42
-0.41421356237309398
10
-176.39935008015948
20
83.053466178067481
10
175.04791346019616
20
83.053466178067538
42
-0.41704317533473795
10
185.04744773271216
20
72.95695538708091
10
183.69623372915021
20
-67.043044612919175
42
-0.41138959970471861
0
CIRCLE
5
128
100
AcDbEntity
8
0
100
AcDbCircle
10
19.600000288337469
20
73.000001087784767
30
1.6520720379480054e-10
40
2.5999999999999983
210
-9.4225817624606235e-12
220
1.2246469529825531e-16
230
-1
0
ENDSEC
0
SECTION
2
OBJECTS
0
DICTIONARY
5
C
100
AcDbDictionary
3
ACAD_GROUP
350
D
3
ACAD_MLINESTYLE
350
17
0
DICTIONARY
5
D
100
AcDbDictionary
0
DICTIONARY
5
1A
330
C
100
AcDbDictionary
0
DICTIONARY
5
17
100
AcDbDictionary
0
ENDSEC
0
EOF
