0
SECTION
2
HEADER
9
$INSUNITS
70
4
9
$ACADVER
1
AC1014
9
$HANDSEED
5
FFFF
0
ENDSEC
0
SECTION
2
TABLES
0
TABLE
2
VPORT
5
8
100
AcDbSymbolTable
0
ENDTAB
0
TABLE
2
LTYPE
5
5
100
AcDbSymbolTable
0
LTYPE
5
14
100
AcDbSymbolTableRecord
100
AcDbLinetypeTableRecord
2
BYBLOCK
70
0
0
LTYPE
5
15
100
AcDbSymbolTableRecord
100
AcDbLinetypeTableRecord
2
BYLAYER
70
0
0
ENDTAB
0
TABLE
2
LAYER
5
2
100
AcDbSymbolTable
70
2
0
LAYER
5
50
100
AcDbSymbolTableRecord
100
AcDbLayerTableRecord
2
0
70
0
6
CONTINUOUS
0
ENDTAB
0
TABLE
2
STYLE
5
3
100
AcDbSymbolTable
70
1
0
STYLE
5
11
100
AcDbSymbolTableRecord
100
AcDbTextStyleTableRecord
2
STANDARD
70
0
0
ENDTAB
0
TABLE
2
VIEW
5
6
100
AcDbSymbolTable
70
0
0
ENDTAB
0
TABLE
2
UCS
5
7
100
AcDbSymbolTable
70
0
0
ENDTAB
0
TABLE
2
APPID
5
9
100
AcDbSymbolTable
70
2
0
APPID
5
12
100
AcDbSymbolTableRecord
100
AcDbRegAppTableRecord
2
ACAD
70
0
0
ENDTAB
0
TABLE
2
DIMSTYLE
5
A
100
AcDbSymbolTable
70
1
0
ENDTAB
0
TABLE
2
BLOCK_RECORD
5
1
100
AcDbSymbolTable
70
1
0
BLOCK_RECORD
5
1F
100
AcDbSymbolTableRecord
100
AcDbBlockTableRecord
2
*MODEL_SPACE
0
BLOCK_RECORD
5
1B
100
AcDbSymbolTableRecord
100
AcDbBlockTableRecord
2
*PAPER_SPACE
0
ENDTAB
0
ENDSEC
0
SECTION
2
BLOCKS
0
BLOCK
5
20
100
AcDbEntity
100
AcDbBlockBegin
2
*MODEL_SPACE
0
ENDBLK
5
21
100
AcDbEntity
100
AcDbBlockEnd
0
BLOCK
5
1C
100
AcDbEntity
100
AcDbBlockBegin
2
*PAPER_SPACE
0
ENDBLK
5
1D
100
AcDbEntity
100
AcDbBlockEnd
0
ENDSEC
0
SECTION
2
ENTITIES
0
LWPOLYLINE
5
100
100
AcDbEntity
8
0
100
AcDbPolyline
90
4
70
1
43
0.0
10
242.60752713118586
20
104.42524608192285
10
240.17645264389387
20
118.21255462410171
10
253.96376118607265
20
120.64362911139369
10
256.3948356733647
20
106.85632056921486
0
LWPOLYLINE
5
101
100
AcDbEntity
8
0
100
AcDbPolyline
90
4
70
1
43
0.0
10
230.89437976595093
20
21.125773221644426
10
228.46330527865885
20
34.91308176382325
10
242.25061382083766
20
37.344156251115272
10
244.68168830812971
20
23.556847708936395
0
LWPOLYLINE
5
102
100
AcDbEntity
8
0
100
AcDbPolyline
90
4
70
1
43
0.0
10
33.126885484948204
20
127.17969634202852
10
46.914194027111122
20
124.7486218546465
10
44.48311953972911
20
110.9613133124836
10
30.695810997566255
20
113.39238779986565
0
LWPOLYLINE
5
103
100
AcDbEntity
8
0
100
AcDbPolyline
90
4
70
1
43
0.0
10
258.70453481845209
20
53.445972415891845
10
261.13560930574408
20
39.658663873713053
10
247.34830076356528
20
37.227589386421009
10
244.91722627627328
20
51.014897928599865
0
LWPOLYLINE
5
104
100
AcDbEntity
8
0
100
AcDbPolyline
90
4
70
1
43
0.0
10
138.63892509966323
20
34.570159668894433
10
124.85161655750036
20
37.001234156276482
10
122.42054207011833
20
23.213925614113574
10
136.20785061228122
20
20.782851126731554
0
LWPOLYLINE
5
105
100
AcDbEntity
8
0
100
AcDbPolyline
90
4
70
1
43
0.0
10
338.24804179936393
20
109.10412992382247
10
340.67911628665593
20
95.316821381643564
10
326.89180774447715
20
92.885746894351627
10
324.46073325718493
20
106.67305543653042
0
LWPOLYLINE
5
106
100
AcDbEntity
8
0
100
AcDbPolyline
90
4
70
1
43
0.0
10
280.78430000805071
20
118.26482745956085
10
283.2153744953427
20
104.477518917382
10
269.42806595316398
20
102.04644443009002
10
266.99699146587199
20
115.83375297226887
0
LWPOLYLINE
5
107
100
AcDbEntity
8
0
100
AcDbPolyline
90
4
70
1
43
0.0
10
263.80222176117968
20
53.329405551197659
10
261.37114727388769
20
67.116714093376515
10
275.15845581606646
20
69.547788580668481
10
277.58953030335846
20
55.760480038489661
0
LWPOLYLINE
5
108
100
AcDbEntity
8
0
100
AcDbPolyline
90
4
70
1
43
0.0
10
257.26307656168325
20
101.93228180415096
10
259.69415104897519
20
88.14497326197214
10
245.90684250679644
20
85.71389877468016
10
243.47576801950439
20
99.501207316858995
0
LWPOLYLINE
5
109
100
AcDbEntity
8
0
100
AcDbPolyline
90
4
70
1
43
0.0
10
277.48498463244016
20
136.97617476680358
10
279.91605911973215
20
123.18886622462472
10
266.12875057755338
20
120.75779173733272
10
263.69767609026133
20
134.54510027951153
0
LWPOLYLINE
5
110
100
AcDbEntity
8
0
100
AcDbPolyline
90
4
70
1
43
0.0
10
127.89915926474451
20
117.57677373444622
10
125.46808477736248
20
103.7894651922833
10
111.6807762351996
20
106.22053967966536
10
114.11185072258156
20
120.00784822182823
0
CIRCLE
5
111
100
AcDbEntity
8
0
100
AcDbCircle
10
356.25
20
13.750000000000036
30
0
40
2.6000000000000001
210
0
220
0
230
1
0
LWPOLYLINE
5
112
100
AcDbEntity
8
0
100
AcDbPolyline
90
8
70
1
43
0.0
10
10
20
160
42
0.41421356237309542
10
-1.3322676295501878e-14
20
150.00000000000003
10
0
20
9.999999999999984
42
0.41421356237309581
10
10
20
-1.1102230246251565e-15
10
360
20
1.9984014443252818e-14
42
0.41421356237310014
10
370.00000000000006
20
9.9999999999999822
10
370.00000000000011
20
150.00000000000003
42
0.41421356237309398
10
360
20
159.99999999999997
0
LWPOLYLINE
5
113
100
AcDbEntity
8
0
100
AcDbPolyline
90
4
70
1
43
0.0
10
306.56535400280177
20
139.05754866001291
10
308.99642849009382
20
125.27024011783409
10
295.20911994791493
20
122.83916563054208
10
292.77804546062282
20
136.62647417272092
0
CIRCLE
5
114
100
AcDbEntity
8
0
100
AcDbCircle
10
13.75
20
13.75
30
0
40
2.6000000000000001
210
0
220
0
230
1
0
LWPOLYLINE
5
115
100
AcDbEntity
8
0
100
AcDbPolyline
90
4
70
1
43
0.0
10
88.159552788938868
20
122.55308533522872
10
101.94686133110176
20
120.12201084784671
10
104.37793581848379
20
133.90931939000956
10
90.59062727632093
20
136.34039387739162
0
LWPOLYLINE
5
116
100
AcDbEntity
8
0
100
AcDbPolyline
90
4
70
1
43
0.0
10
323.59249236886649
20
111.5970942015943
10
321.16141788157449
20
125.38440274377315
10
334.94872642375321
20
127.81547723106512
10
337.37980091104527
20
114.0281686888863
0
CIRCLE
5
117
100
AcDbEntity
8
0
100
AcDbCircle
10
185
20
13.750000000000018
30
1.9469351714262089e-11
40
2.6000000000000001
210
0
220
0
230
1
0
LWPOLYLINE
5
118
100
AcDbEntity
8
0
100
AcDbPolyline
90
4
70
1
43
0.0
10
178.00000000000009
20
87.94653382193259
10
178.00000000000009
20
101.9465338219326
10
192.00003799384945
20
101.9465338219326
10
192.00003799384945
20
87.94653382193259
0
LWPOLYLINE
5
119
100
AcDbEntity
8
0
100
AcDbPolyline
90
4
70
1
43
0.0
10
296.07736083623354
20
117.91512686547821
10
298.50843532352553
20
104.12781832329938
10
312.29574386570425
20
106.55889281059143
10
309.86466937841232
20
120.34620135277022
0
LWPOLYLINE
5
120
100
AcDbEntity
8
0
100
AcDbPolyline
90
4
70
1
43
0.0
10
240.40237365701671
20
76.619899506931986
10
254.18968219919549
20
79.050973994223995
10
256.6207566864876
20
65.263665452045146
10
242.83344814430873
20
62.832590964753152
0
LWPOLYLINE
5
121
100
AcDbEntity
8
0
100
AcDbPolyline
90
4
70
1
43
0.0
10
226.37952714669427
20
46.730774799976508
10
223.94845265940234
20
60.518083342155336
10
237.73576120158111
20
62.949157829447344
10
240.16683568887316
20
49.161849287268502
0
LWPOLYLINE
5
122
100
AcDbEntity
8
0
100
AcDbPolyline
90
4
70
1
43
0.0
10
119.75392961477205
20
36.884667291615528
10
105.96662107260917
20
39.315741778997563
10
108.39769555999121
20
53.103050321160453
10
122.18500410215411
20
50.671975833778404
0
CIRCLE
5
123
100
AcDbEntity
8
0
100
AcDbCircle
10
210
20
146.24999999999997
30
1.9484341389201056e-11
40
2.6000000000000001
210
0
220
0
230
1
0
LWPOLYLINE
5
124
100
AcDbEntity
8
0
100
AcDbPolyline
90
4
70
1
43
0.0
10
59.079183418591029
20
124.63445922862802
10
61.510257905973091
20
138.42176777079089
10
75.297566448135953
20
135.99069328340892
10
72.866491960753905
20
122.20338474124601
0
CIRCLE
5
125
100
AcDbEntity
8
0
100
AcDbCircle
10
356.25
20
146.24999999999997
30
-1.6313519833939019e-09
40
2.6000000000000001
210
0
220
0
230
1
0
CIRCLE
5
126
100
AcDbEntity
8
0
100
AcDbCircle
10
160
20
146.25
30
1.9484341389201056e-11
40
2.6000000000000001
210
0
220
0
230
1
0
CIRCLE
5
127
100
AcDbEntity
8
0
100
AcDbCircle
10
13.749999999999993
20
146.25
30
1.6703206661723021e-09
40
2.6000000000000001
210
0
220
0
230
1
0
ENDSEC
0
SECTION
2
OBJECTS
0
DICTIONARY
5
C
100
AcDbDictionary
3
ACAD_GROUP
350
D
3
ACAD_MLINESTYLE
350
17
0
DICTIONARY
5
D
100
AcDbDictionary
0
DICTIONARY
5
1A
330
C
100
AcDbDictionary
0
DICTIONARY
5
17
100
AcDbDictionary
0
ENDSEC
0
EOF
