0
SECTION
2
HEADER
9
$INSUNITS
70
4
9
$ACADVER
1
AC1014
9
$HANDSEED
5
FFFF
0
ENDSEC
0
SECTION
2
TABLES
0
TABLE
2
VPORT
5
8
100
AcDbSymbolTable
0
ENDTAB
0
TABLE
2
LTYPE
5
5
100
AcDbSymbolTable
0
LTYPE
5
14
100
AcDbSymbolTableRecord
100
AcDbLinetypeTableRecord
2
BYBLOCK
70
0
0
LTYPE
5
15
100
AcDbSymbolTableRecord
100
AcDbLinetypeTableRecord
2
BYLAYER
70
0
0
ENDTAB
0
TABLE
2
LAYER
5
2
100
AcDbSymbolTable
70
2
0
LAYER
5
50
100
AcDbSymbolTableRecord
100
AcDbLayerTableRecord
2
0
70
0
6
CONTINUOUS
0
ENDTAB
0
TABLE
2
STYLE
5
3
100
AcDbSymbolTable
70
1
0
STYLE
5
11
100
AcDbSymbolTableRecord
100
AcDbTextStyleTableRecord
2
STANDARD
70
0
0
ENDTAB
0
TABLE
2
VIEW
5
6
100
AcDbSymbolTable
70
0
0
ENDTAB
0
TABLE
2
UCS
5
7
100
AcDbSymbolTable
70
0
0
ENDTAB
0
TABLE
2
APPID
5
9
100
AcDbSymbolTable
70
2
0
APPID
5
12
100
AcDbSymbolTableRecord
100
AcDbRegAppTableRecord
2
ACAD
70
0
0
ENDTAB
0
TABLE
2
DIMSTYLE
5
A
100
AcDbSymbolTable
70
1
0
ENDTAB
0
TABLE
2
BLOCK_RECORD
5
1
100
AcDbSymbolTable
70
1
0
BLOCK_RECORD
5
1F
100
AcDbSymbolTableRecord
100
AcDbBlockTableRecord
2
*MODEL_SPACE
0
BLOCK_RECORD
5
1B
100
AcDbSymbolTableRecord
100
AcDbBlockTableRecord
2
*PAPER_SPACE
0
ENDTAB
0
ENDSEC
0
SECTION
2
BLOCKS
0
BLOCK
5
20
100
AcDbEntity
100
AcDbBlockBegin
2
*MODEL_SPACE
0
ENDBLK
5
21
100
AcDbEntity
100
AcDbBlockEnd
0
BLOCK
5
1C
100
AcDbEntity
100
AcDbBlockBegin
2
*PAPER_SPACE
0
ENDBLK
5
1D
100
AcDbEntity
100
AcDbBlockEnd
0
ENDSEC
0
SECTION
2
ENTITIES
0
CIRCLE
5
100
100
AcDbEntity
8
0
100
AcDbCircle
10
-173.69672655252526
20
-66.942030377596069
30
-5.3128327794475208e-12
40
2.5999999999999868
210
-9.4225817624606235e-12
220
1.2246469529825531e-16
230
-1
0
CIRCLE
5
101
100
AcDbEntity
8
0
100
AcDbCircle
10
1.3993120863099762
20
-66.942030377596069
30
-6.2924172051598197e-12
40
2.6000000000000005
210
-9.4225817624606235e-12
220
1.2246469529825531e-16
230
-1
0
LWPOLYLINE
5
102
100
AcDbEntity
8
0
100
AcDbPolyline
90
8
70
1
43
0.0
10
-176.39931208631003
20
83.057969622403959
42
0.41421356237309243
10
-186.39931208631
20
73.057969622404016
10
-186.39931208630998
20
-66.942030377596069
42
0.4142135623730992
10
-176.39931208631
20
-76.942030377596041
10
173.69672655252526
20
-76.942030377596041
42
0.41138992133761643
10
183.6962609312273
20
-67.038530165965682
10
185.04732087662998
20
72.961469834034347
42
0.4170428524135571
10
175.04778649792797
20
83.057969622403931
0
LINE
5
103
100
AcDbEntity
8
0
100
AcDbLine
10
-186.39931208631
20
-66.942030377596069
30
0
11
-186.39931208631
21
58.057969622403931
31
0
0
CIRCLE
5
104
100
AcDbEntity
8
0
100
AcDbCircle
10
176.39931208631
20
-66.942030377596069
30
-8.1769335576511751e-12
40
2.6000000000000121
210
-9.4225817624606235e-12
220
1.2246469529825531e-16
230
-1
0
CIRCLE
5
105
100
AcDbEntity
8
0
100
AcDbCircle
10
19.516758026009757
20
73.057969622403945
30
1.6442285387102444e-10
40
2.5999999999999983
210
-9.4225817624606235e-12
220
1.2246469529825531e-16
230
-1
0
CIRCLE
5
106
100
AcDbEntity
8
0
100
AcDbCircle
10
176.39931208630998
20
73.057969622403931
30
-8.174778175248696e-12
40
2.6000000000000134
210
-9.4225817624606235e-12
220
1.2246469529825531e-16
230
-1
0
CIRCLE
5
107
100
AcDbEntity
8
0
100
AcDbCircle
10
-175.04778649792797
20
73.057969622403931
30
-1.804115019858655e-11
40
2.5999999999999974
210
-9.4225817624606235e-12
220
1.2246469529825531e-16
230
-1
0
LWPOLYLINE
5
108
100
AcDbEntity
8
0
100
AcDbPolyline
90
4
70
1
43
0.0
10
-159.17890687463847
20
34.012375251908566
10
-139.48275181440582
20
30.539411698505678
10
-136.00978826100291
20
50.235566758738379
10
-155.70594332123568
20
53.708530312141292
0
LWPOLYLINE
5
109
100
AcDbEntity
8
0
100
AcDbPolyline
90
4
70
1
43
0.0
10
-127.32257090021079
20
64.950601740903664
10
-130.79553445361373
20
45.254446680670917
10
-111.09937939338099
20
41.781483127268082
10
-107.62641583997807
20
61.477638187500816
0
LWPOLYLINE
5
110
100
AcDbEntity
8
0
100
AcDbPolyline
90
4
70
1
43
0.0
10
-101.71516522136457
20
43.173072690573903
10
-98.242201626560728
20
62.869227985603104
10
-78.546046331531571
20
59.396264390799224
10
-82.019009926335386
20
39.700109095770038
0
LWPOLYLINE
5
111
100
AcDbEntity
8
0
100
AcDbPolyline
90
4
70
1
43
0.0
10
-78.193941775103866
20
26.840527035010521
10
-58.497786480074694
20
23.367563440206688
10
-55.024822885270794
20
43.063718735235874
10
-74.720978180300065
20
46.536682330039696
0
LWPOLYLINE
5
112
100
AcDbEntity
8
0
100
AcDbPolyline
90
4
70
1
43
0.0
10
-11.399312205519259
20
7.9999998807907051
10
8.6006880328993223
20
7.9999998807907069
10
8.6006880328993258
20
28.00000011920929
10
-11.399312205519257
20
28.00000011920929
0
LWPOLYLINE
5
113
100
AcDbEntity
8
0
100
AcDbPolyline
90
8
70
1
43
0.0
10
-80.435133342890452
20
-20.368115570628067
10
-83.908096937694282
20
-40.064270865657264
10
-65.196749630473249
20
-43.363586241390017
10
-67.454175940185138
20
-56.166087030541256
10
-47.758020645155945
20
-59.639050625345092
10
-44.285057050352073
20
-39.942895330315913
10
-62.996404357573141
20
-36.643579954583117
10
-60.738978047861238
20
-23.841079165431935
0
LWPOLYLINE
5
114
100
AcDbEntity
8
0
100
AcDbPolyline
90
16
70
1
43
0.0
10
34.073734787213454
20
-13.994971753730068
10
37.546698340487652
20
-33.691126813985548
10
56.258045647730412
20
-30.391811438374965
10
57.29993469301219
20
-36.300657839053329
10
38.588587268371256
20
-39.599973235364388
10
42.06155086304652
20
-59.296128530416325
10
61.7577061580985
20
-55.823164935741126
10
59.500279827769717
20
-43.020664029176842
10
78.211627017614177
20
-39.721348674266707
10
75.954200728686374
20
-26.918848002498912
10
94.665548153327293
20
-23.61953260618786
10
91.192584558651987
20
-3.9233773111359165
10
72.481237134011124
20
-7.2226927074469565
10
70.223810845083278
20
5.5798079643208816
10
50.527655784827829
20
2.1068444110465845
10
52.785082094456115
20
-10.695656378119477
0
LINE
5
115
100
AcDbEntity
8
0
100
AcDbLine
10
53.77469822828153
20
24.003344329862092
30
0
11
50.301734633606245
21
43.699499624914075
31
0
0
LINE
5
116
100
AcDbEntity
8
0
100
AcDbLine
10
50.301734633606245
20
43.699499624914075
30
0
11
69.99788992865814
21
47.172463219589261
31
0
0
LINE
5
117
100
AcDbEntity
8
0
100
AcDbLine
10
69.99788992865814
20
47.172463219589261
30
0
11
73.470853523333489
21
27.476307924537352
31
0
0
LINE
5
118
100
AcDbEntity
8
0
100
AcDbLine
10
73.2972053042688
20
28.46111591234656
30
0
11
76.770168898943979
21
8.7649606172946104
31
0
0
LINE
5
119
100
AcDbEntity
8
0
100
AcDbLine
10
76.770168898943979
20
8.7649606172946104
30
0
11
57.07401360389207
21
5.2919970226194124
31
0
0
LINE
5
120
100
AcDbEntity
8
0
100
AcDbLine
10
57.07401360389207
20
5.2919970226194124
30
0
11
53.60105000921682
21
24.988152317671364
31
0
0
LINE
5
121
100
AcDbEntity
8
0
100
AcDbLine
10
77.295921674649065
20
40.335889985271933
30
0
11
73.822958079973745
21
60.032045280323857
31
0
0
LINE
5
122
100
AcDbEntity
8
0
100
AcDbLine
10
73.822958079973745
20
60.032045280323857
30
0
11
93.519113375025768
21
63.505008874999163
31
0
0
LINE
5
123
100
AcDbEntity
8
0
100
AcDbLine
10
93.519113375025768
20
63.505008874999163
30
0
11
96.992076969700975
21
43.808853579947204
31
0
0
LINE
5
124
100
AcDbEntity
8
0
100
AcDbLine
10
80.595237050259655
20
21.624542678029254
30
0
11
77.122273455584349
21
41.320697973081188
31
0
0
LINE
5
125
100
AcDbEntity
8
0
100
AcDbLine
10
96.818428750636244
20
44.793661567756459
30
0
11
100.29139234531151
21
25.097506272704493
31
0
0
LINE
5
126
100
AcDbEntity
8
0
100
AcDbLine
10
100.29139234531151
20
25.097506272704493
30
0
11
80.595237050259655
21
21.624542678029254
31
0
0
LINE
5
127
100
AcDbEntity
8
0
100
AcDbLine
10
106.37629104501059
20
42.417263878481322
30
0
11
102.90332745033525
21
62.113419173533245
31
0
0
LINE
5
128
100
AcDbEntity
8
0
100
AcDbLine
10
102.90332745033525
20
62.113419173533245
30
0
11
122.59948274538729
21
65.586382768208495
31
0
0
LINE
5
129
100
AcDbEntity
8
0
100
AcDbLine
10
122.59948274538729
20
65.586382768208495
30
0
11
126.07244634006261
21
45.890227473156571
31
0
0
LINE
5
130
100
AcDbEntity
8
0
100
AcDbLine
10
106.20264282594592
20
43.402071866290569
30
0
11
109.67560642062112
21
23.705916571238621
31
0
0
LINE
5
131
100
AcDbEntity
8
0
100
AcDbLine
10
109.67560642062112
20
23.705916571238621
30
0
11
129.37176171567305
21
27.178880165913874
31
0
0
LINE
5
132
100
AcDbEntity
8
0
100
AcDbLine
10
129.37176171567305
20
27.178880165913874
30
0
11
125.89879812099788
21
46.875035460965819
31
0
0
LINE
5
133
100
AcDbEntity
8
0
100
AcDbLine
10
134.75966346596215
20
31.175192449533537
30
0
11
131.28669987128688
21
50.871347744585492
31
0
0
LINE
5
134
100
AcDbEntity
8
0
100
AcDbLine
10
131.28669987128688
20
50.871347744585492
30
0
11
150.98285516633882
21
54.344311339260678
31
0
0
LINE
5
135
100
AcDbEntity
8
0
100
AcDbLine
10
150.98285516633882
20
54.344311339260678
30
0
11
154.45581876101403
21
34.64815604420879
31
0
0
LINE
5
136
100
AcDbEntity
8
0
100
AcDbLine
10
157.75513413662469
20
15.936808736966059
30
0
11
138.05897884157278
21
12.463845142290868
31
0
0
LINE
5
137
100
AcDbEntity
8
0
100
AcDbLine
10
138.05897884157278
20
12.463845142290868
30
0
11
134.58601524689743
21
32.160000437342731
31
0
0
LINE
5
138
100
AcDbEntity
8
0
100
AcDbLine
10
154.28217054194948
20
35.632964032018052
30
0
11
157.75513413662469
21
15.936808736966059
31
0
0
CIRCLE
5
139
100
AcDbEntity
8
0
100
AcDbCircle
10
-16.646772674505748
20
73.057969622403945
30
-1.7633097097383785e-10
40
2.5999999999999983
210
-9.4225817624606235e-12
220
1.2246469529825531e-16
230
-1
0
ENDSEC
0
SECTION
2
OBJECTS
0
DICTIONARY
5
C
100
AcDbDictionary
3
ACAD_GROUP
350
D
3
ACAD_MLINESTYLE
350
17
0
DICTIONARY
5
D
100
AcDbDictionary
0
DICTIONARY
5
1A
330
C
100
AcDbDictionary
0
DICTIONARY
5
17
100
AcDbDictionary
0
ENDSEC
0
EOF
