0
SECTION
2
HEADER
9
$INSUNITS
70
4
9
$ACADVER
1
AC1014
9
$HANDSEED
5
FFFF
0
ENDSEC
0
SECTION
2
TABLES
0
TABLE
2
VPORT
5
8
100
AcDbSymbolTable
0
ENDTAB
0
TABLE
2
LTYPE
5
5
100
AcDbSymbolTable
0
LTYPE
5
14
100
AcDbSymbolTableRecord
100
AcDbLinetypeTableRecord
2
BYBLOCK
70
0
0
LTYPE
5
15
100
AcDbSymbolTableRecord
100
AcDbLinetypeTableRecord
2
BYLAYER
70
0
0
ENDTAB
0
TABLE
2
LAYER
5
2
100
AcDbSymbolTable
70
2
0
LAYER
5
50
100
AcDbSymbolTableRecord
100
AcDbLayerTableRecord
2
0
70
0
6
CONTINUOUS
0
ENDTAB
0
TABLE
2
STYLE
5
3
100
AcDbSymbolTable
70
1
0
STYLE
5
11
100
AcDbSymbolTableRecord
100
AcDbTextStyleTableRecord
2
STANDARD
70
0
0
ENDTAB
0
TABLE
2
VIEW
5
6
100
AcDbSymbolTable
70
0
0
ENDTAB
0
TABLE
2
UCS
5
7
100
AcDbSymbolTable
70
0
0
ENDTAB
0
TABLE
2
APPID
5
9
100
AcDbSymbolTable
70
2
0
APPID
5
12
100
AcDbSymbolTableRecord
100
AcDbRegAppTableRecord
2
ACAD
70
0
0
ENDTAB
0
TABLE
2
DIMSTYLE
5
A
100
AcDbSymbolTable
70
1
0
ENDTAB
0
TABLE
2
BLOCK_RECORD
5
1
100
AcDbSymbolTable
70
1
0
BLOCK_RECORD
5
1F
100
AcDbSymbolTableRecord
100
AcDbBlockTableRecord
2
*MODEL_SPACE
0
BLOCK_RECORD
5
1B
100
AcDbSymbolTableRecord
100
AcDbBlockTableRecord
2
*PAPER_SPACE
0
ENDTAB
0
ENDSEC
0
SECTION
2
BLOCKS
0
BLOCK
5
20
100
AcDbEntity
100
AcDbBlockBegin
2
*MODEL_SPACE
0
ENDBLK
5
21
100
AcDbEntity
100
AcDbBlockEnd
0
BLOCK
5
1C
100
AcDbEntity
100
AcDbBlockBegin
2
*PAPER_SPACE
0
ENDBLK
5
1D
100
AcDbEntity
100
AcDbBlockEnd
0
ENDSEC
0
SECTION
2
ENTITIES
0
LWPOLYLINE
5
100
100
AcDbEntity
8
0
100
AcDbPolyline
90
4
70
1
43
0.0
10
88.157110459749305
20
139.81125836319919
10
84.684146864945475
20
120.11510306816999
10
104.38030215997466
20
116.64213947336613
10
107.8532657547785
20
136.33829476839531
0
LWPOLYLINE
5
101
100
AcDbEntity
8
0
100
AcDbPolyline
90
4
70
1
43
0.0
10
50.38952382530713
20
127.17759713633447
10
46.916560271904224
20
107.48144207610176
10
27.220405211671572
20
110.95440562950465
10
30.693368765074336
20
130.65056068973735
0
LWPOLYLINE
5
102
100
AcDbEntity
8
0
100
AcDbPolyline
90
4
70
1
43
0.0
10
59.076741186099241
20
141.89263211849973
10
78.772896246331953
20
138.41966856509688
10
75.299932692929033
20
118.72351350486414
10
55.603777632696314
20
122.19647705826699
0
LWPOLYLINE
5
103
100
AcDbEntity
8
0
100
AcDbPolyline
90
4
70
1
43
0.0
10
127.90152560623537
20
100.30959381780278
10
108.2053703112062
20
103.78255741260659
10
111.67833390600997
20
123.47871270763578
10
131.37448920103924
20
120.00574911283195
0
LWPOLYLINE
5
104
100
AcDbEntity
8
0
100
AcDbPolyline
90
16
70
1
43
0.0
10
224.9878993546813
20
37.342057142231688
10
243.69924677932227
20
40.641372538542754
10
242.65735773404046
20
46.550218939221111
10
223.9460104267977
20
43.250903563610521
10
220.47304687352351
20
62.947058623866006
10
239.18439418076616
20
66.246373999476603
10
236.92696787113789
20
79.048874788642664
10
256.62312293139331
20
82.521838341916961
10
258.8805492203212
20
69.719337670149116
10
277.59189664496205
20
73.018653066460161
10
281.06486023963731
20
53.322497771408223
10
262.35351281499641
20
50.023182375097164
10
264.61093910392424
20
37.220681703329369
10
245.89959191407979
20
33.921366348419241
10
248.15701824440853
20
21.11886544185495
10
228.46086294935657
20
17.645901847179751
0
LINE
5
105
100
AcDbEntity
8
0
100
AcDbLine
10
321.15897555227218
20
108.11722282712961
30
0
11
317.68601195759692
21
127.81337812218158
31
0
0
LWPOLYLINE
5
106
100
AcDbEntity
8
0
100
AcDbPolyline
90
8
70
1
43
0.0
10
118.94513614612491
20
20.775943347054813
10
121.20256245583678
20
33.578444136206059
10
102.49121514861578
20
36.877759511938805
10
105.96417874341959
20
56.573914806968013
10
125.66033403844881
20
53.100951212164148
10
123.40290772873689
20
40.298450423012959
10
142.11425503595797
20
36.99913504728017
10
138.6412914411541
20
17.302979752250973
0
LINE
5
107
100
AcDbEntity
8
0
100
AcDbLine
10
263.69523376095913
20
117.277920362868
30
0
11
260.22227016628381
21
136.97407565791994
31
0
0
LINE
5
108
100
AcDbEntity
8
0
100
AcDbLine
10
263.16948098525404
20
85.706990994890688
30
0
11
243.4733256902021
21
82.234027400215481
31
0
0
LINE
5
109
100
AcDbEntity
8
0
100
AcDbLine
10
308.99879483169735
20
142.52841314580456
30
0
11
312.47175842637267
21
122.83225785075263
31
0
0
LINE
5
110
100
AcDbEntity
8
0
100
AcDbLine
10
240.17401031459158
20
100.94537470745817
30
0
11
236.70104671991629
21
120.64153000251014
31
0
0
LWPOLYLINE
5
111
100
AcDbEntity
8
0
100
AcDbPolyline
90
4
70
1
43
0.0
10
174.9999998807908
20
84.942030258386794
10
174.9999998807908
20
104.94203049680536
10
195.0000001192094
20
104.94203049680536
10
195.00000011920935
20
84.942030258386794
0
LINE
5
112
100
AcDbEntity
8
0
100
AcDbLine
10
296.07491850693117
20
100.64794694883471
30
0
11
315.77107380198311
21
104.12091054350995
31
0
0
LINE
5
113
100
AcDbEntity
8
0
100
AcDbLine
10
324.4582909278829
20
89.405875519886962
30
0
11
320.98532733320752
21
109.10203081493881
31
0
0
LINE
5
114
100
AcDbEntity
8
0
100
AcDbLine
10
292.60195491225596
20
120.34410224388665
30
0
11
296.07491850693117
21
100.64794694883471
31
0
0
LINE
5
115
100
AcDbEntity
8
0
100
AcDbLine
10
256.39720201496817
20
124.11449359718534
30
0
11
259.87016560964355
21
104.41833830213344
31
0
0
LINE
5
116
100
AcDbEntity
8
0
100
AcDbLine
10
236.70104671991629
20
120.64153000251014
30
0
11
256.39720201496817
21
124.11449359718534
31
0
0
LINE
5
117
100
AcDbEntity
8
0
100
AcDbLine
10
259.69651739057883
20
105.40314628994264
30
0
11
263.16948098525404
21
85.706990994890688
31
0
0
LINE
5
118
100
AcDbEntity
8
0
100
AcDbLine
10
289.3026395366453
20
139.05544955112933
30
0
11
308.99879483169735
21
142.52841314580456
31
0
0
LINE
5
119
100
AcDbEntity
8
0
100
AcDbLine
10
266.99454913656973
20
98.566573055625341
30
0
11
263.52158554189441
21
118.26272835067726
31
0
0
LINE
5
120
100
AcDbEntity
8
0
100
AcDbLine
10
292.77560313132062
20
119.35929425607739
30
0
11
289.3026395366453
21
139.05544955112933
31
0
0
LINE
5
121
100
AcDbEntity
8
0
100
AcDbLine
10
283.21774083694629
20
121.73569194535254
30
0
11
286.69070443162155
21
102.03953665030056
31
0
0
LINE
5
122
100
AcDbEntity
8
0
100
AcDbLine
10
315.77107380198311
20
104.12091054350995
30
0
11
312.2981102073079
21
123.81706583856189
31
0
0
LINE
5
123
100
AcDbEntity
8
0
100
AcDbLine
10
260.22227016628381
20
136.97407565791994
30
0
11
279.9184254613358
21
140.44703925259523
31
0
0
LINE
5
124
100
AcDbEntity
8
0
100
AcDbLine
10
337.38216725264886
20
131.28634171685675
30
0
11
340.85513084732412
21
111.59018642180487
31
0
0
LINE
5
125
100
AcDbEntity
8
0
100
AcDbLine
10
340.68148262825952
20
112.57499440961412
30
0
11
344.15444622293478
21
92.87883911456214
31
0
0
LINE
5
126
100
AcDbEntity
8
0
100
AcDbLine
10
286.69070443162155
20
102.03953665030056
30
0
11
266.99454913656973
21
98.566573055625341
31
0
0
LINE
5
127
100
AcDbEntity
8
0
100
AcDbLine
10
279.9184254613358
20
140.44703925259523
30
0
11
283.39138905601101
21
120.75088395754328
31
0
0
LINE
5
128
100
AcDbEntity
8
0
100
AcDbLine
10
317.68601195759692
20
127.81337812218158
30
0
11
337.38216725264886
21
131.28634171685675
31
0
0
LINE
5
129
100
AcDbEntity
8
0
100
AcDbLine
10
344.15444622293478
20
92.87883911456214
30
0
11
324.4582909278829
21
89.405875519886962
31
0
0
LINE
5
130
100
AcDbEntity
8
0
100
AcDbLine
10
243.4733256902021
20
82.234027400215481
30
0
11
240.00036209552687
21
101.93018269526745
31
0
0
LWPOLYLINE
5
131
100
AcDbEntity
8
0
100
AcDbPolyline
90
8
70
1
43
0.0
10
10
20
160
10
360
20
159.99999999999997
42
-0.4142135623730992
10
370.00000000000006
20
150.00000000000003
10
370.00000000000006
20
9.9999999999999822
42
-0.41421356237309609
10
360
20
3.1086244689504383e-14
10
10
20
-1.1102230246251565e-15
42
-0.41421356237309559
10
0
20
9.9999999999999822
10
-1.3322676295501878e-14
20
150.00000000000003
42
-0.41421356237309542
0
CIRCLE
5
132
100
AcDbEntity
8
0
100
AcDbCircle
10
13.75
20
13.75
30
0
40
2.6000000000000001
210
0
220
0
230
1
0
CIRCLE
5
133
100
AcDbEntity
8
0
100
AcDbCircle
10
356.25
20
146.24999999999997
30
-1.6313519833939019e-09
40
2.6000000000000001
210
0
220
0
230
1
0
CIRCLE
5
134
100
AcDbEntity
8
0
100
AcDbCircle
10
210
20
146.24999999999997
30
1.9484341389201056e-11
40
2.6000000000000001
210
0
220
0
230
1
0
CIRCLE
5
135
100
AcDbEntity
8
0
100
AcDbCircle
10
160
20
146.25
30
1.9484341389201056e-11
40
2.6000000000000001
210
0
220
0
230
1
0
CIRCLE
5
136
100
AcDbEntity
8
0
100
AcDbCircle
10
13.749999999999993
20
146.25
30
1.6703206661723021e-09
40
2.6000000000000001
210
0
220
0
230
1
0
CIRCLE
5
137
100
AcDbEntity
8
0
100
AcDbCircle
10
356.25
20
13.750000000000036
30
0
40
2.6000000000000001
210
0
220
0
230
1
0
CIRCLE
5
138
100
AcDbEntity
8
0
100
AcDbCircle
10
185
20
13.750000000000018
30
1.9469351714262089e-11
40
2.6000000000000001
210
0
220
0
230
1
0
ENDSEC
0
SECTION
2
OBJECTS
0
DICTIONARY
5
C
100
AcDbDictionary
3
ACAD_GROUP
350
D
3
ACAD_MLINESTYLE
350
17
0
DICTIONARY
5
D
100
AcDbDictionary
0
DICTIONARY
5
1A
330
C
100
AcDbDictionary
0
DICTIONARY
5
17
100
AcDbDictionary
0
ENDSEC
0
EOF
